<?xml version="1.0" standalone="no"?>
<!DOCTYPE svg PUBLIC "-//W3C//DTD SVG 20010904//EN"
 "http://www.w3.org/TR/2001/REC-SVG-20010904/DTD/svg10.dtd">
<svg version="1.0" xmlns="http://www.w3.org/2000/svg"
 width="900.000000pt" height="900.000000pt" viewBox="0 0 900.000000 900.000000"
 preserveAspectRatio="xMidYMid meet">
<metadata>
Created by potrace 1.11, written by Peter Selinger 2001-2013
</metadata>
<g transform="translate(0.000000,900.000000) scale(0.100000,-0.100000)"
fill="#000000" stroke="none">
<path d="M3240 7046 c-49 -7 -92 -21 -125 -40 -27 -16 -77 -45 -110 -64 -33
-19 -179 -104 -324 -189 -224 -131 -268 -154 -293 -149 -38 8 -61 -15 -117
-119 -56 -103 -209 -314 -676 -935 -223 -296 -627 -848 -893 -1219 -214 -298
-506 -685 -537 -711 -24 -20 -45 -65 -45 -99 0 -21 8 -35 29 -50 16 -12 33
-21 39 -21 5 0 54 -19 108 -41 91 -38 985 -339 1149 -388 39 -11 156 -45 260
-76 105 -31 222 -65 260 -76 125 -37 328 -100 424 -133 l94 -31 21 -60 21 -60
105 2 c58 1 125 3 150 5 29 1 97 -13 195 -40 201 -56 285 -81 315 -94 14 -6
63 -13 110 -15 81 -5 90 -4 174 31 49 20 90 35 92 33 4 -3 -26 -89 -141 -412
-37 -104 -123 -415 -159 -577 l-6 -28 73 0 73 0 37 158 c21 86 43 177 49 202
5 25 14 56 18 70 5 14 27 90 49 170 40 141 82 253 134 356 13 27 30 68 37 92
7 23 19 42 26 42 7 0 61 -12 121 -26 59 -14 189 -43 288 -64 99 -22 284 -62
410 -90 127 -28 311 -68 410 -90 99 -22 284 -62 410 -90 127 -28 291 -64 365
-80 74 -16 218 -47 320 -70 102 -22 268 -59 370 -81 190 -42 436 -96 792 -174
350 -77 592 -132 609 -139 18 -8 31 22 44 99 7 46 108 500 220 995 182 803
185 818 360 1635 58 273 93 425 114 500 36 130 99 420 106 485 3 36 11 89 16
118 6 30 8 56 6 59 -3 2 -50 11 -104 18 -55 7 -115 21 -134 30 -19 10 -92 66
-164 124 -327 267 -354 286 -440 310 -89 25 -250 74 -337 102 -32 11 -66 20
-75 22 -10 1 -22 5 -28 9 -5 3 -26 9 -45 13 -19 3 -62 15 -95 25 -33 11 -107
33 -165 49 -110 30 -146 41 -475 139 -448 133 -486 142 -582 142 -107 0 -217
-29 -349 -92 -194 -94 -236 -132 -324 -293 l-44 -80 -71 146 c-100 209 -192
311 -420 466 -98 67 -240 133 -365 171 -233 69 -548 130 -770 147 -107 8 -262
22 -345 30 -82 8 -154 14 -160 14 -5 -1 -44 -7 -85 -13z m-355 -395 c-3 -6
-11 -11 -17 -11 -6 0 -6 6 2 15 14 17 26 13 15 -4z m-52 -86 c-3 -9 -8 -14
-10 -11 -3 3 -2 9 2 15 9 16 15 13 8 -4z m3158 -95 c-8 -4 -12 -17 -9 -28 4
-15 1 -18 -12 -15 -14 4 -20 -4 -27 -34 -7 -27 -14 -37 -26 -35 -9 2 -17 -2
-17 -7 0 -5 -10 -13 -22 -17 -12 -3 -28 -12 -35 -19 -7 -7 -18 -15 -25 -17
-10 -4 -10 -9 2 -23 14 -16 13 -17 -7 -11 -12 4 -24 3 -27 -2 -3 -6 -44 -29
-91 -52 -47 -23 -92 -51 -99 -61 -8 -12 -19 -17 -30 -13 -12 4 -15 2 -10 -9 3
-8 1 -18 -5 -21 -11 -7 -12 33 0 49 4 6 12 28 18 51 23 84 101 162 228 224 77
39 248 74 194 40z m-3631 -550 c0 -5 -7 -10 -16 -10 -8 0 -12 5 -9 10 3 6 10
10 16 10 5 0 9 -4 9 -10z m-30 -44 c0 -3 -4 -8 -10 -11 -5 -3 -10 -1 -10 4 0
6 5 11 10 11 6 0 10 -2 10 -4z m3057 -158 c13 -29 15 -38 6 -39 -3 0 -12 13
-19 30 -15 35 -3 43 13 9z m-57 -112 c0 -3 -4 -8 -10 -11 -5 -3 -10 -1 -10 4
0 6 5 11 10 11 6 0 10 -2 10 -4z m-25 -85 c3 -5 1 -12 -5 -16 -5 -3 -10 1 -10
9 0 18 6 21 15 7z m55 -31 c0 -5 -5 -10 -11 -10 -5 0 -7 5 -4 10 3 6 8 10 11
10 2 0 4 -4 4 -10z m-80 -106 c0 -8 -5 -12 -10 -9 -6 4 -8 11 -5 16 9 14 15
11 15 -7z m-115 -124 c3 -5 1 -10 -4 -10 -6 0 -11 5 -11 10 0 6 2 10 4 10 3 0
8 -4 11 -10z m22 -36 c-3 -3 -12 -4 -19 -1 -8 3 -5 6 6 6 11 1 17 -2 13 -5z
m103 -14 c0 -5 -4 -10 -9 -10 -6 0 -13 5 -16 10 -3 6 1 10 9 10 9 0 16 -4 16
-10z m-184 -32 c-1 -13 -5 -24 -9 -25 -8 -4 -10 6 -3 30 6 25 15 21 12 -5z
m94 18 c0 -3 -4 -8 -10 -11 -5 -3 -10 -1 -10 4 0 6 5 11 10 11 6 0 10 -2 10
-4z m-50 -36 c0 -5 -4 -10 -10 -10 -5 0 -10 5 -10 10 0 6 5 10 10 10 6 0 10
-4 10 -10z m60 -20 c0 -5 -2 -10 -4 -10 -3 0 -8 5 -11 10 -3 6 -1 10 4 10 6 0
11 -4 11 -10z m23 -37 c-7 -2 -19 -2 -25 0 -7 3 -2 5 12 5 14 0 19 -2 13 -5z
m-103 -38 c-7 -8 -20 -15 -29 -15 -11 0 -8 5 9 14 33 19 35 19 20 1z m30 -35
c-8 -5 -19 -10 -25 -10 -5 0 -3 5 5 10 8 5 20 10 25 10 6 0 3 -5 -5 -10z m-65
-79 c-3 -6 -11 -8 -17 -5 -6 4 -5 9 3 15 16 10 23 4 14 -10z m150 -1 c-11 -5
-29 -9 -40 -9 l-20 0 20 9 c11 5 29 9 40 9 l20 0 -20 -9z m-225 -24 c0 -2 -7
-7 -16 -10 -8 -3 -12 -2 -9 4 6 10 25 14 25 6z m110 0 c0 -2 -8 -10 -17 -17
-16 -13 -17 -12 -4 4 13 16 21 21 21 13z m-162 -38 c-2 -18 1 -22 17 -20 22 4
21 3 -17 -21 -18 -11 -26 -13 -24 -5 3 7 7 25 10 41 8 32 19 36 14 5z m147
-26 c-91 -28 -164 -62 -199 -94 -11 -10 -22 -15 -25 -12 -5 5 56 58 69 60 8 1
57 22 101 43 23 11 45 18 49 16 5 -3 19 -1 32 4 12 6 32 10 43 10 11 0 -20
-12 -70 -27z m222 -18 c-3 -3 -12 -4 -19 -1 -8 3 -5 6 6 6 11 1 17 -2 13 -5z
m-170 -20 c-3 -3 -12 -4 -19 -1 -8 3 -5 6 6 6 11 1 17 -2 13 -5z m-87 -18 c0
-3 -4 -8 -10 -11 -5 -3 -10 -1 -10 4 0 6 5 11 10 11 6 0 10 -2 10 -4z m-40
-14 c0 -7 -92 -43 -98 -38 -3 4 78 45 91 46 4 0 7 -3 7 -8z m155 -22 c-28 -12
-37 -12 -30 0 3 6 16 10 28 9 21 0 21 -1 2 -9z m-80 -14 c-11 -8 -23 -12 -27
-10 -3 2 -19 -1 -35 -8 -15 -6 -32 -10 -36 -10 -4 1 -21 -5 -38 -14 -17 -8
-36 -13 -42 -11 -6 2 11 12 38 21 28 10 59 22 70 27 17 7 37 12 79 18 6 0 1
-5 -9 -13z m-205 -26 c0 -5 -5 -10 -11 -10 -5 0 -7 5 -4 10 3 6 8 10 11 10 2
0 4 -4 4 -10z m175 -29 c-6 -5 -26 -14 -45 -19 -19 -5 -43 -13 -52 -17 -10 -4
-18 -3 -18 2 0 9 46 27 95 37 11 2 22 4 25 5 2 0 0 -3 -5 -8z m52 3 c-3 -3
-12 -4 -19 -1 -8 3 -5 6 6 6 11 1 17 -2 13 -5z m-255 -35 c-19 -17 -37 -27
-40 -23 -4 4 -1 9 5 11 7 3 23 13 35 23 37 31 36 22 0 -11z m53 -19 c-3 -5
-11 -10 -16 -10 -6 0 -7 5 -4 10 3 6 11 10 16 10 6 0 7 -4 4 -10z m-75 -40
c-18 -14 -22 -22 -14 -30 7 -7 18 -4 37 14 14 13 28 22 31 19 3 -3 35 3 71 12
36 10 68 16 71 13 3 -3 -19 -11 -48 -18 -61 -15 -150 -53 -191 -82 -15 -11
-30 -18 -33 -15 -2 2 7 12 21 21 18 12 24 23 20 34 -4 10 4 23 22 38 15 12 30
20 33 17 3 -2 -6 -13 -20 -23z m347 -16 c-3 -3 -12 -4 -19 -1 -8 3 -5 6 6 6
11 1 17 -2 13 -5z m-137 -14 c0 -5 -5 -10 -11 -10 -5 0 -7 5 -4 10 3 6 8 10
11 10 2 0 4 -4 4 -10z m47 4 c-3 -3 -12 -4 -19 -1 -8 3 -5 6 6 6 11 1 17 -2
13 -5z m-102 -14 c-28 -12 -37 -12 -30 0 3 6 16 10 28 9 21 0 21 -1 2 -9z
m-75 -20 c-8 -5 -19 -10 -25 -10 -5 0 -3 5 5 10 8 5 20 10 25 10 6 0 3 -5 -5
-10z m-70 -30 c0 -5 -2 -10 -4 -10 -3 0 -8 5 -11 10 -3 6 -1 10 4 10 6 0 11
-4 11 -10z m195 1 c-6 -6 -30 -12 -55 -15 -25 -3 -72 -15 -105 -26 -73 -24
-81 -24 -65 -5 7 8 18 14 24 13 6 -1 36 6 66 15 49 14 80 20 130 26 9 0 10 -2
5 -8z m-243 -19 c-57 -42 -76 -61 -70 -68 4 -3 19 1 32 10 29 18 40 21 31 6
-3 -6 -23 -18 -44 -28 -37 -18 -37 -18 -36 4 0 22 78 94 100 93 6 0 0 -8 -13
-17z m223 -42 c-3 -5 -14 -10 -23 -9 -14 0 -13 2 3 9 27 11 27 11 20 0z m72 4
c-3 -3 -12 -4 -19 -1 -8 3 -5 6 6 6 11 1 17 -2 13 -5z m66 -1 c-7 -2 -19 -2
-25 0 -7 3 -2 5 12 5 14 0 19 -2 13 -5z m-193 -13 c-8 -5 -22 -10 -30 -10 -13
0 -13 1 0 10 8 5 22 10 30 10 13 0 13 -1 0 -10z m-130 -34 c-37 -20 -70 -29
-70 -18 0 5 15 14 33 20 46 14 66 14 37 -2z m249 -16 c-6 -5 -18 -6 -26 -3
-19 8 -16 11 13 11 17 0 22 -3 13 -8z m-59 -5 c-8 -2 -48 -9 -87 -15 -40 -7
-73 -15 -73 -18 0 -4 -16 -8 -36 -9 -47 -2 -87 -29 -81 -53 3 -11 -1 -24 -9
-31 -22 -18 -18 -42 6 -34 34 11 22 -10 -13 -23 -42 -15 -70 -16 -44 -1 18 11
24 39 7 39 -6 0 -21 -7 -34 -15 -22 -15 -24 -14 -28 9 -4 18 2 30 24 46 15 11
28 17 28 13 0 -5 -9 -14 -20 -21 -11 -7 -20 -19 -20 -28 0 -15 2 -15 25 0 13
9 31 16 39 16 18 0 27 23 16 40 -11 18 -1 40 16 33 7 -3 16 2 20 10 3 9 11 14
17 12 7 -3 44 4 82 15 39 10 95 19 125 18 30 0 48 -2 40 -3z m-280 -15 c0 -5
-5 -10 -11 -10 -5 0 -7 5 -4 10 3 6 8 10 11 10 2 0 4 -4 4 -10z m-55 -35 c-16
-14 -33 -25 -37 -25 -11 0 26 36 43 43 25 10 24 6 -6 -18z m283 -16 c-20 -13
-38 -11 -32 5 3 8 13 12 25 9 16 -5 18 -8 7 -14z m82 2 c0 -6 -4 -13 -10 -16
-5 -3 -10 -2 -10 4 0 5 -8 12 -17 14 -11 3 -7 5 10 6 15 0 27 -3 27 -8z m-150
-13 c0 -5 -4 -7 -9 -3 -6 3 -14 -3 -20 -12 -10 -17 -10 -17 -11 0 0 22 -16 22
-29 0 -5 -10 -13 -15 -17 -11 -4 4 -2 14 5 22 13 16 81 19 81 4z m377 6 c-3
-3 -12 -4 -19 -1 -8 3 -5 6 6 6 11 1 17 -2 13 -5z m-487 -28 c0 -11 -19 -15
-25 -6 -3 5 1 10 9 10 9 0 16 -2 16 -4z m235 -15 c-3 -6 -11 -11 -16 -11 -5 0
-4 6 3 14 14 16 24 13 13 -3z m-180 -35 c-10 -7 -29 -12 -42 -10 -37 4 -41 14
-5 14 17 0 37 6 44 14 7 8 15 10 17 4 1 -5 -5 -15 -14 -22z m113 19 c-10 -8
-68 -13 -68 -5 0 10 39 18 58 12 7 -3 12 -6 10 -7z m109 9 c-3 -3 -12 -4 -19
-1 -8 3 -5 6 6 6 11 1 17 -2 13 -5z m33 2 c0 -3 -4 -8 -10 -11 -5 -3 -10 -1
-10 4 0 6 5 11 10 11 6 0 10 -2 10 -4z m-210 -80 c-5 -5 -25 -10 -45 -12 -40
-4 -65 -19 -65 -40 0 -11 18 -13 93 -7 108 7 116 -2 9 -11 -94 -9 -163 -22
-171 -32 -3 -5 -17 -10 -31 -10 -31 -2 -90 -25 -108 -42 -8 -7 -28 -20 -45
-28 -31 -16 -32 -16 -11 2 26 25 55 43 77 50 9 4 17 10 17 14 0 4 36 16 80 26
73 16 80 20 80 42 0 21 -3 23 -30 17 -19 -4 -30 -3 -30 4 0 6 12 11 28 12 40
1 66 7 69 16 2 4 23 8 48 8 25 0 40 -4 35 -9z m140 7 c-46 -2 -90 -9 -97 -15
-9 -7 -13 -7 -13 0 0 17 20 20 110 19 l85 -1 -85 -3z m-386 -28 c-4 -8 -10
-15 -15 -15 -5 0 -9 7 -9 15 0 8 7 15 15 15 9 0 12 -6 9 -15z m-34 -9 c0 -2
-11 -11 -25 -20 -28 -19 -33 -15 -9 8 14 15 34 22 34 12z m84 -15 c-5 -5 -20
-12 -33 -16 -30 -9 -19 13 13 25 24 9 34 4 20 -9z m-3645 -27 c10 -9 -6 -11
-36 -7 -18 3 -33 9 -33 14 0 8 59 1 69 -7z m3580 2 c-20 -16 -119 -74 -114
-66 9 15 108 80 114 75 2 -3 2 -7 0 -9z m414 7 c-7 -2 -21 -2 -30 0 -10 3 -4
5 12 5 17 0 24 -2 18 -5z m-3913 -34 c11 -7 4 -8 -25 -3 -50 8 -58 14 -19 14
16 0 36 -5 44 -11z m4247 -5 c-3 -3 -12 -4 -19 -1 -8 3 -5 6 6 6 11 1 17 -2
13 -5z m-410 -26 c-15 -10 -120 -10 -114 0 3 4 32 7 66 7 33 1 55 -3 48 -7z
m-3720 -4 c-3 -3 -12 -4 -19 -1 -8 3 -5 6 6 6 11 1 17 -2 13 -5z m3583 -4 c0
-12 -8 -12 -35 0 -18 8 -17 9 8 9 15 1 27 -3 27 -9z m257 4 c-3 -3 -12 -4 -19
-1 -8 3 -5 6 6 6 11 1 17 -2 13 -5z m-3800 -10 c-3 -3 -12 -4 -19 -1 -8 3 -5
6 6 6 11 1 17 -2 13 -5z m3461 -26 c-14 -44 -16 -45 -68 -53 -33 -4 -41 -3
-30 4 8 6 27 11 42 11 17 0 31 8 38 19 14 26 13 31 -6 31 -8 0 -12 5 -9 10 3
6 15 10 25 10 17 0 18 -3 8 -32z m-53 13 c-15 -13 -65 -23 -65 -12 0 10 22 18
55 20 11 1 15 -3 10 -8z m-3292 -18 c-7 -2 -19 -2 -25 0 -7 3 -2 5 12 5 14 0
19 -2 13 -5z m3207 -7 c0 -6 -92 -47 -96 -43 -3 2 15 14 38 25 43 21 58 26 58
18z m275 -16 c-3 -5 -12 -10 -18 -10 -7 0 -6 4 3 10 19 12 23 12 15 0z m-3298
-16 c-3 -3 -12 -4 -19 -1 -8 3 -5 6 6 6 11 1 17 -2 13 -5z m78 -22 c-3 -3 -11
0 -18 7 -9 10 -8 11 6 5 10 -3 15 -9 12 -12z m2946 -9 c-12 -8 -21 -21 -21
-30 0 -13 9 -14 56 -8 l56 7 -13 -24 c-17 -33 -23 -37 -14 -9 7 22 5 23 -16
17 -13 -4 -32 -8 -42 -9 -10 -1 -21 -6 -25 -12 -4 -5 -23 -11 -42 -13 -19 -1
-42 -10 -52 -19 -11 -9 -18 -11 -18 -5 0 16 78 52 96 45 8 -3 14 0 14 7 0 6
-5 8 -10 5 -7 -4 -9 2 -4 19 l6 25 -49 -25 c-26 -14 -59 -32 -73 -41 -14 -9
-10 -3 10 15 19 17 45 34 57 38 12 3 24 11 26 18 3 7 21 12 42 13 35 1 36 0
16 -14z m-2838 -10 c-7 -2 -19 -2 -25 0 -7 3 -2 5 12 5 14 0 19 -2 13 -5z
m3077 -13 c0 -5 -2 -10 -4 -10 -3 0 -8 5 -11 10 -3 6 -1 10 4 10 6 0 11 -4 11
-10z m-2825 -40 c13 -5 14 -9 5 -9 -8 0 -24 4 -35 9 -13 5 -14 9 -5 9 8 0 24
-4 35 -9z m140 -31 c10 -10 -39 -2 -85 12 -16 5 -6 6 25 2 28 -3 54 -9 60 -14z
m2592 5 c-3 -3 -12 -4 -19 -1 -8 3 -5 6 6 6 11 1 17 -2 13 -5z m40 0 c-3 -3
-12 -4 -19 -1 -8 3 -5 6 6 6 11 1 17 -2 13 -5z m-348 -38 c-17 -36 -7 -41 32
-17 19 12 44 21 57 21 12 0 22 4 22 9 0 5 10 8 23 8 12 -1 34 2 50 6 16 5 27
3 27 -3 0 -5 -9 -10 -20 -10 -12 0 -34 -7 -50 -15 -16 -8 -33 -14 -37 -13 -4
1 -21 -6 -38 -15 l-30 -17 40 5 c22 4 60 8 85 11 43 4 44 3 19 -9 -14 -8 -45
-17 -68 -21 -45 -7 -167 -61 -210 -93 -24 -17 -24 -17 -13 3 6 12 8 25 4 29
-4 5 1 5 10 2 10 -3 20 -2 23 3 3 4 0 10 -7 12 -6 2 5 17 25 32 20 16 37 37
37 47 0 19 21 61 27 55 2 -2 -2 -15 -8 -30z m-2216 17 c-7 -2 -21 -2 -30 0
-10 3 -4 5 12 5 17 0 24 -2 18 -5z m60 -10 c-7 -2 -21 -2 -30 0 -10 3 -4 5 12
5 17 0 24 -2 18 -5z m77 -13 c12 -8 11 -10 -7 -10 -12 0 -25 5 -28 10 -8 13
15 13 35 0z m47 -16 c-3 -3 -12 -4 -19 -1 -8 3 -5 6 6 6 11 1 17 -2 13 -5z
m78 -14 c14 -7 8 -8 -20 -3 -22 3 -42 7 -44 9 -9 8 45 2 64 -6z m82 -26 c-3
-3 -12 -4 -19 -1 -8 3 -5 6 6 6 11 1 17 -2 13 -5z m2010 -30 c-3 -3 -12 -4
-19 -1 -8 3 -5 6 6 6 11 1 17 -2 13 -5z m-57 -34 c0 -11 -10 -24 -22 -30 -22
-10 -22 -10 -4 4 12 10 17 23 13 36 -3 11 -1 18 4 14 5 -3 9 -14 9 -24z m-61
6 c-2 -2 -15 -9 -29 -15 -24 -11 -24 -11 -6 3 16 13 49 24 35 12z m-69 -70 c0
-2 -7 -7 -16 -10 -8 -3 -12 -2 -9 4 6 10 25 14 25 6z m138 -11 c-2 -1 -19 -5
-38 -8 l-35 -6 30 14 c17 7 34 11 38 8 5 -3 7 -6 5 -8z m-198 -25 c-14 -11
-29 -20 -35 -20 -5 0 4 9 20 20 38 25 48 25 15 0z m51 -16 c-19 -8 -41 -19
-48 -26 -7 -6 -13 -8 -13 -4 0 10 63 46 80 46 8 -1 0 -7 -19 -16z m192 -1 c-7
-2 -19 -2 -25 0 -7 3 -2 5 12 5 14 0 19 -2 13 -5z m-108 -13 c3 -5 -1 -10 -10
-10 -9 0 -13 5 -10 10 3 6 8 10 10 10 2 0 7 -4 10 -10z m-55 -20 c-8 -5 -22
-10 -31 -10 -9 0 -22 -7 -29 -15 -15 -19 -30 -19 -30 -2 0 12 52 33 90 36 13
1 13 0 0 -9z m147 -16 c-3 -3 -12 -4 -19 -1 -8 3 -5 6 6 6 11 1 17 -2 13 -5z
m-98 -18 c-2 -2 -17 -6 -34 -10 -22 -5 -26 -4 -15 4 14 9 59 15 49 6z m-69
-16 c0 -5 -8 -10 -17 -10 -15 0 -16 2 -3 10 19 12 20 12 20 0z m-143 -32 c-3
-7 -5 -2 -5 12 0 14 2 19 5 13 2 -7 2 -19 0 -25z m73 7 c-7 -8 -18 -15 -24
-15 -6 0 -2 7 8 15 25 19 32 19 16 0z m120 -15 c0 -5 -10 -10 -22 -9 -22 0
-22 1 -3 9 11 5 21 9 23 9 1 1 2 -3 2 -9z m-80 -20 c-19 -13 -30 -13 -30 0 0
6 10 10 23 10 18 0 19 -2 7 -10z m168 -17 c-10 -2 -26 -2 -35 0 -10 3 -2 5 17
5 19 0 27 -2 18 -5z m-121 -19 c-3 -3 -12 -4 -19 -1 -8 3 -5 6 6 6 11 1 17 -2
13 -5z m-81 -21 c-3 -4 -17 -8 -29 -10 -17 -2 -19 -1 -7 7 17 11 47 14 36 3z
m131 -48 c-1 -36 -21 -53 -42 -35 -10 8 -13 5 -11 -15 0 -14 4 -25 7 -25 4 0
9 -11 11 -25 3 -14 1 -25 -3 -25 -5 0 -10 8 -10 18 -1 9 -5 -1 -9 -23 -5 -23
-4 -42 2 -46 5 -3 8 -12 6 -20 -2 -10 13 -15 62 -20 l65 -6 -60 -2 c-33 -1
-67 -4 -75 -5 -8 -2 -44 -6 -78 -10 -122 -14 -236 -58 -330 -128 l-53 -40 17
34 c9 18 20 35 24 38 12 8 80 142 80 157 0 7 5 13 12 13 6 0 8 3 5 7 -4 3 22
34 58 69 42 40 63 67 60 77 -4 8 1 17 9 20 11 5 16 0 16 -14 0 -16 4 -19 18
-14 9 4 27 10 40 12 12 3 22 10 22 15 0 5 3 7 8 5 5 -3 140 17 149 22 0 1 1
-15 0 -34z"/>
</g>
</svg>
